<svg width="1280" height="640" viewBox="0 0 1280 640" xmlns="http://www.w3.org/2000/svg" role="img" aria-label="ArchitectIQ banner">
  <defs>
    <linearGradient id="bg" x1="0" y1="0" x2="1" y2="1">
      <stop offset="0%" stop-color="#0A1F44"/>
      <stop offset="100%" stop-color="#123A7A"/>
    </linearGradient>
    <linearGradient id="accent" x1="0" y1="0" x2="1" y2="0">
      <stop offset="0%" stop-color="#2ED3B7"/>
      <stop offset="100%" stop-color="#6FD6FF"/>
    </linearGradient>
  </defs>

  <rect width="1280" height="640" fill="url(#bg)"/>
  <circle cx="1120" cy="120" r="190" fill="#1A4A94" opacity="0.25"/>
  <circle cx="180" cy="540" r="220" fill="#0E2E66" opacity="0.35"/>

  <g opacity="0.22" stroke="#B7D7FF" stroke-width="1.5" fill="none">
    <path d="M80 180 L240 120 L390 210 L540 150 L690 240 L840 170 L990 250"/>
    <circle cx="80" cy="180" r="6" fill="#B7D7FF"/>
    <circle cx="240" cy="120" r="6" fill="#B7D7FF"/>
    <circle cx="390" cy="210" r="6" fill="#B7D7FF"/>
    <circle cx="540" cy="150" r="6" fill="#B7D7FF"/>
    <circle cx="690" cy="240" r="6" fill="#B7D7FF"/>
    <circle cx="840" cy="170" r="6" fill="#B7D7FF"/>
    <circle cx="990" cy="250" r="6" fill="#B7D7FF"/>
  </g>

  <text x="96" y="300" fill="#FFFFFF" font-family="Segoe UI, Arial, sans-serif" font-size="92" font-weight="700">ArchitectIQ</text>
  <rect x="96" y="326" width="470" height="8" rx="4" fill="url(#accent)"/>
  <text x="96" y="388" fill="#D7E8FF" font-family="Segoe UI, Arial, sans-serif" font-size="38" font-weight="400">AI Architecture Engine for Developers</text>
  <text x="96" y="442" fill="#B7D7FF" font-family="Segoe UI, Arial, sans-serif" font-size="27" font-weight="400">Plan changes. Predict impact. Build with confidence.</text>
</svg>
